<svg id="Layer_1" data-name="Layer 1" xmlns="http://www.w3.org/2000/svg" viewBox="0 0 23.19 28.44"><defs><style>.cls-1{fill:#c82030;}</style></defs><path class="cls-1" d="M11.59,0,0,6.28A37.71,37.71,0,0,0,.4,12a39.12,39.12,0,0,0,.9,4.5,14.52,14.52,0,0,0,1.56,3.62A27.71,27.71,0,0,0,4.69,22.9a16.2,16.2,0,0,0,2.24,2.23,25.37,25.37,0,0,0,2.26,1.75l2.4,1.56L14,26.88a26.92,26.92,0,0,0,2.26-1.75,16.06,16.06,0,0,0,2.23-2.23,29.39,29.39,0,0,0,1.84-2.77,14.12,14.12,0,0,0,1.55-3.62,38.93,38.93,0,0,0,.91-4.5,39,39,0,0,0,.4-5.73Zm7.94,11.29L11,18.5a1.13,1.13,0,0,1-1.56-.07L5.39,14.31A1.15,1.15,0,0,1,7,12.7l3.3,3.35L18,9.53a1.15,1.15,0,0,1,1.49,1.76Z"/></svg>