<svg id="Layer_1" data-name="Layer 1" xmlns="http://www.w3.org/2000/svg" viewBox="0 0 32.33 29.65"><defs><style>.cls-1{fill:#c82030;}</style></defs><circle class="cls-1" cx="13.44" cy="26.9" r="2.75"/><circle class="cls-1" cx="24.85" cy="26.9" r="2.75"/><path class="cls-1" d="M32.33,5.61h-24L6.89,0H0V2.35H4.4l5.45,21h17.8l.63-2.4h-16l-.55-2.15H28.83ZM14.64,15.07a1.08,1.08,0,1,1-2.16,0V9a1.08,1.08,0,1,1,2.16,0Zm5.78,0a1.09,1.09,0,0,1-2.17,0V9a1.09,1.09,0,1,1,2.17,0Zm5.77,0a1.08,1.08,0,1,1-2.16,0V9a1.08,1.08,0,1,1,2.16,0Z"/></svg>