<svg id="Layer_1" data-name="Layer 1" xmlns="http://www.w3.org/2000/svg" viewBox="0 0 87.87 61"><defs><style>.cls-1{fill:#c82030;}.cls-2{fill:#bfbebe;}</style></defs><path class="cls-1" d="M57.3,61H24.67a3.36,3.36,0,0,1-3.36-3.36v-20a3.37,3.37,0,0,1,3.36-3.37H57.3a3.37,3.37,0,0,1,3.36,3.37v20A3.36,3.36,0,0,1,57.3,61ZM24.67,35.69a2,2,0,0,0-2,2v20a2,2,0,0,0,2,2H57.3a2,2,0,0,0,2-2v-20a2,2,0,0,0-2-2Z"/><rect class="cls-1" x="25.46" y="41.31" width="31.04" height="1.38"/><rect class="cls-1" x="43.98" y="53.86" width="9.76" height="1.38"/><rect class="cls-2" x="1.42" y="58.78" width="17.59" height="1.38"/><path class="cls-2" d="M16.64,52.27H15.26V21l.08-.15c1-1.95,3.53-3.46,4.49-4V0L25.7.09V16.91c1,.52,3.46,2,4.49,3.93l.08.15V31.87H28.9V21.34C27.76,19.42,24.75,18,24.72,18l-.4-.19V1.45L21.21,1.4V17.69l-.38.19s-3.06,1.54-4.19,3.46Z"/><polygon class="cls-2" points="64.79 52.97 61.79 46.11 63.05 45.56 65.44 51 86.11 39.07 80.51 26.39 67.91 22.29 55.92 29.25 57.03 31.8 55.77 32.35 54.16 28.67 67.75 20.79 81.52 25.27 87.87 39.65 64.79 52.97"/><rect class="cls-2" x="70.32" y="17.36" width="1.38" height="33.6" transform="translate(16.55 91.11) rotate(-71.97)"/><polygon class="cls-2" points="64.52 52.08 62.6 31.4 71.37 22.37 72.36 23.33 64.03 31.91 65.89 51.95 64.52 52.08"/><polygon class="cls-2" points="65.72 52.47 64.68 51.56 77.99 36.45 76.3 24.61 77.66 24.42 79.44 36.88 65.72 52.47"/><polygon class="cls-2" points="11.17 57.21 9.79 57.21 9.79 43.02 0 30.6 13.79 30.6 13.79 31.98 2.84 31.98 11.17 42.54 11.17 57.21"/><rect class="cls-2" x="4.91" y="22.18" width="1.38" height="14.73" transform="translate(-15.77 8.39) rotate(-34.55)"/></svg>