<svg id="Layer_1" data-name="Layer 1" xmlns="http://www.w3.org/2000/svg" viewBox="0 0 30.05 26.54"><defs><style>.cls-1{fill:#c82030;}</style></defs><path class="cls-1" d="M30.05,11.62v13.3a1.51,1.51,0,0,1-.5,1.15,1.64,1.64,0,0,1-1.19.47H26.67a1.54,1.54,0,0,1-1.15-.47,1.56,1.56,0,0,1-.47-1.15V23.23H5v1.69a1.51,1.51,0,0,1-.5,1.15,1.66,1.66,0,0,1-1.19.47H1.69A1.64,1.64,0,0,1,.5,26.07,1.51,1.51,0,0,1,0,24.92V11.62L3.5,1.69A2.18,2.18,0,0,1,5.81,0H24.18a2.21,2.21,0,0,1,2.37,1.69ZM26.67,10,24.18,2.5H5.81L3.31,10ZM8.37,15.8A2.36,2.36,0,0,0,7.62,14a2.51,2.51,0,0,0-1.81-.72A2.52,2.52,0,0,0,4,17.58a2.41,2.41,0,0,0,1.78.72,2.51,2.51,0,0,0,1.81-.72A2.36,2.36,0,0,0,8.37,15.8Zm18.3,0a2.44,2.44,0,0,0-2.49-2.5,2.46,2.46,0,0,0-2.5,2.5A2.52,2.52,0,0,0,26,17.58,2.44,2.44,0,0,0,26.67,15.8Z"/></svg>