<svg id="Layer_1" data-name="Layer 1" xmlns="http://www.w3.org/2000/svg" viewBox="0 0 40.84 26.07"><defs><style>.cls-1{fill:#c82030;}</style></defs><path class="cls-1" d="M35.93.06a5.52,5.52,0,0,0-.71,0c-2.79-.09-4,.69-8.3,2.77l-10.16,5L9.85,11.16l-.51.25a2.71,2.71,0,0,1-2.83-.27L3.79,9.09C2.2,7.87,1.34,8.29,0,9l3,6q.12.24.27.48c1.73,2.89,5.24,3.66,8.33,2.14l7.19-3.52,1.6-.79L18.62,26.07C21.43,24.78,22.2,23.94,23,22l5.44-12.7,4.35-2.13,8-3.95C40.17,1.3,37.89.34,35.93.06Z"/><path class="cls-1" d="M6.5,1.38l9.21,5.31L23,3.12,12.4.38C10.38-.15,9.24,0,6.5,1.38Z"/></svg>