<svg id="Layer_1" data-name="Layer 1" xmlns="http://www.w3.org/2000/svg" viewBox="0 0 39.05 31.25"><defs><style>.cls-1{fill:#c82030;}</style></defs><path class="cls-1" d="M19.52,15.62l-3.84,3.85h0L14.5,20.64l3.85,3.85,1.17-1.17h0l3.85-3.85h0l1.11-1.11-3.85-3.85-1.11,1.1Zm5.5-5.5L23.91,9l-3.85,3.84L21.18,14h0L25,17.81h0L26.19,19,30,15.13,28.87,14h0L25,10.12Zm-11,0h0L12.64,8.76,10.43,6.54a4,4,0,0,0-3.9,3.8L8.8,12.6,10.16,14h0L14,17.82h0l1.12,1.11L19,15.09,17.87,14h0Zm-6.1,5-1-1a5.1,5.1,0,0,1,7.21-7.21l1,1L19,4.07l-1-1A10.54,10.54,0,0,0,3.09,18l1,1ZM31.3,11.53l.72-.71.48-.48a4,4,0,0,0-3.9-3.8L28.17,7l-.71.71L25.57,9.57l3.85,3.85ZM8.6,24.94s0,0,0,0a1.17,1.17,0,0,1-.11-1.53h0l3.85-3.85h0l1.17-1.17L9.62,14.51l-.5.5h0L4.6,19.53l0,0c-1.27,1.66-1.07,4.37.56,6.37S9.31,28.48,11,27.36L8.6,24.94ZM36,3.09A10.57,10.57,0,0,0,21,3.09L19.52,4.61h0L15.66,8.45h0L14.55,9.57l3.85,3.85,1.12-1.11h0l3.85-3.84h0L24.89,7a5.1,5.1,0,0,1,7.21,7.21l-1.51,1.52h0l-3.85,3.85h0l-1.1,1.11,3.85,3.85.23-.24h0l6.18-6.17h0L36,18A10.56,10.56,0,0,0,36,3.09M30.42,25h0A1.16,1.16,0,0,1,29,25h0l-3.87-3.87h0L23.93,20l-3.87,3.85,5,5v0c1.65,1.32,4.4,1.14,6.41-.5s2.58-4.18,1.41-5.88Zm-12.49.19L17.81,25h0L14,21.18h0l-1.11-1.11L9,23.92l.31.31h0l4.82,4.82a7.68,7.68,0,0,0,10.39.35l-3.89-3.89a2.26,2.26,0,0,1-2.7-.35"/></svg>